<?xml version="1.0" standalone="no"?><!DOCTYPE svg PUBLIC "-//W3C//DTD SVG 1.1//EN" "http://www.w3.org/Graphics/SVG/1.1/DTD/svg11.dtd"><svg t="1695610732968" class="icon" viewBox="0 0 1024 1024" version="1.1" xmlns="http://www.w3.org/2000/svg" p-id="53539" width="64" height="64" xmlns:xlink="http://www.w3.org/1999/xlink"><path d="M512 512m-512 0a512 512 0 1 0 1024 0 512 512 0 1 0-1024 0Z" fill="#F1F1F1" p-id="53540"></path><path d="M771.328 279.272727H252.672C240.709818 279.272727 232.727273 287.232 232.727273 299.170909v310.248727c0 11.927273 7.982545 19.886545 19.944727 19.886546h235.392v71.598545h-103.726545c-3.991273 0-11.973818 3.979636-11.973819 11.927273v31.825455c0 3.979636 3.991273 3.979636 3.991273 3.979636h271.290182c3.991273 0 3.991273-3.979636 3.991273-3.979636v-31.825455c0-3.979636-3.991273-11.927273-11.973819-11.927273h-103.726545V629.294545h235.392c11.962182 0 19.944727-7.959273 19.944727-19.898181V299.170909C791.272727 287.232 783.290182 279.272727 771.328 279.272727z m-23.936 302.301091H276.596364V323.025455H747.403636V581.585455z" fill="#003857" p-id="53541"></path><path d="M519.982545 358.830545l35.898182 11.927273-51.863272 190.929455-35.909819-11.938909 51.874909-190.917819zM432.209455 374.737455l27.927272 27.845818-55.854545 55.68 55.854545 59.671272-27.927272 27.845819-83.781819-87.505455 83.781819-83.549091zM591.790545 374.737455l83.781819 83.525818-83.781819 87.505454-27.927272-27.834182 55.854545-59.671272-55.854545-55.68 27.927272-27.845818z" fill="#E4393C" p-id="53542"></path></svg>